<svg width="41" height="41" viewBox="0 0 41 41" fill="none" xmlns="http://www.w3.org/2000/svg">
    <g clip-path="url(#clip0_457_4048)">
        <path
            d="M20.5 12.1668C19.5834 12.1668 18.8334 12.9168 18.8334 13.8335V18.8335H13.8334C12.9167 18.8335 12.1667 19.5835 12.1667 20.5002C12.1667 21.4168 12.9167 22.1668 13.8334 22.1668H18.8334V27.1668C18.8334 28.0835 19.5834 28.8335 20.5 28.8335C21.4167 28.8335 22.1667 28.0835 22.1667 27.1668V22.1668H27.1667C28.0834 22.1668 28.8334 21.4168 28.8334 20.5002C28.8334 19.5835 28.0834 18.8335 27.1667 18.8335H22.1667V13.8335C22.1667 12.9168 21.4167 12.1668 20.5 12.1668ZM20.5 3.8335C11.3 3.8335 3.83337 11.3002 3.83337 20.5002C3.83337 29.7002 11.3 37.1668 20.5 37.1668C29.7 37.1668 37.1667 29.7002 37.1667 20.5002C37.1667 11.3002 29.7 3.8335 20.5 3.8335ZM20.5 33.8335C13.15 33.8335 7.16671 27.8502 7.16671 20.5002C7.16671 13.1502 13.15 7.16683 20.5 7.16683C27.85 7.16683 33.8334 13.1502 33.8334 20.5002C33.8334 27.8502 27.85 33.8335 20.5 33.8335Z"
            fill="currentColor" />
    </g>
    <defs>
        <clipPath id="clip0_457_4048">
            <rect width="40" height="40" fill="white" transform="translate(0.5 0.5)" />
        </clipPath>
    </defs>
</svg>
    