<svg width="25" height="25" viewBox="0 0 25 25" fill="none" xmlns="http://www.w3.org/2000/svg">
    <path
        d="M12.7031 24.6445C19.3242 24.6445 24.8086 19.1719 24.8086 12.5391C24.8086 5.91797 19.3242 0.433594 12.6914 0.433594C6.07031 0.433594 0.597656 5.91797 0.597656 12.5391C0.597656 19.1719 6.08203 24.6445 12.7031 24.6445ZM6.97266 12.5508C6.97266 11.8711 7.45312 11.3906 8.13281 11.3906H11.5547V7.95703C11.5547 7.28906 12.0234 6.79688 12.6914 6.79688C13.3711 6.79688 13.8516 7.28906 13.8516 7.95703V11.3906H17.2852C17.9531 11.3906 18.4336 11.8711 18.4336 12.5508C18.4336 13.2188 17.9531 13.6875 17.2852 13.6875H13.8516V17.1211C13.8516 17.7891 13.3711 18.2695 12.6914 18.2695C12.0234 18.2695 11.5547 17.7891 11.5547 17.1211V13.6875H8.13281C7.45312 13.6875 6.97266 13.2188 6.97266 12.5508Z"
        fill="#003166" />
</svg>
    