<svg width="69" height="26" viewBox="0 0 69 26" fill="none" xmlns="http://www.w3.org/2000/svg">
    <path
        d="M34.4304 11.4282C34.4304 11.675 34.5454 11.7974 34.776 11.7974C35.2515 11.7974 35.7345 11.7612 36.2235 11.6887L36.1381 9.6459V0.477832C36.1381 0.232033 36.0231 0.108643 35.7922 0.108643C35.3167 0.108643 34.8337 0.144876 34.3438 0.217343L34.4304 2.26013V11.4282Z"
        fill="#EB8F81" />
    <path
        d="M37.9216 2.32471V11.4281C37.9216 11.6749 38.0366 11.7973 38.2675 11.7973C38.7428 11.7973 39.2249 11.7611 39.715 11.6886L39.6293 9.64584V2.23755C40.017 1.84681 40.4074 1.65096 40.796 1.65096C41.3573 1.65096 41.6387 1.92614 41.6387 2.47552V10.4067C41.6387 11.4056 42.0207 11.906 42.7842 11.906C43.7057 11.906 44.1675 11.4928 44.1675 10.6672C43.8646 10.6672 43.6522 10.6055 43.5294 10.4831C43.4067 10.3607 43.3463 10.1462 43.3463 9.84168V2.34625C43.3463 0.927266 42.6333 0.217285 41.2073 0.217285C40.6159 0.217285 40.0394 0.456231 39.4773 0.93412C39.2756 0.456231 38.9366 0.217285 38.4623 0.217285C37.9867 0.217285 37.6411 0.325986 37.4249 0.543386C37.2086 0.760788 37.1083 1.05751 37.122 1.43356C37.4249 1.43356 37.6334 1.50308 37.7493 1.64019C37.8631 1.77826 37.9216 2.00644 37.9216 2.32471Z"
        fill="#EB8F81" />
    <path
        d="M47.8953 11.6886C48.7448 11.6886 49.4186 11.4859 49.9166 11.0805C50.4133 10.6751 50.6618 10.11 50.6618 9.38535V2.34625C50.6618 0.927266 49.9485 0.217285 48.5225 0.217285C47.9314 0.217285 47.3546 0.456231 46.7925 0.93412C46.6055 0.456231 46.2703 0.217285 45.7873 0.217285C45.3052 0.217285 44.9554 0.325986 44.7392 0.543386C44.5229 0.760788 44.4226 1.05751 44.4363 1.43356C44.7392 1.43356 44.9477 1.50308 45.0627 1.64019C45.1777 1.77826 45.2359 2.00644 45.2359 2.32471V11.6886H47.8953ZM46.9445 2.23755C47.3331 1.84681 47.7229 1.65096 48.1115 1.65096C48.6737 1.65096 48.9542 1.92614 48.9542 2.47552V9.38535C48.9542 9.6615 48.8607 9.874 48.6737 10.0268C48.4864 10.1786 48.2421 10.255 47.9392 10.255H46.9445V2.23755Z"
        fill="#EB8F81" />
    <path
        d="M52.38 2.06433V4.6937C52.38 6.0843 53.1145 6.77959 54.5835 6.77959C55.2176 6.77959 55.7221 6.59157 56.0964 6.21454V9.60386C56.0964 9.87903 56.0068 10.0925 55.8264 10.2453C55.6463 10.3971 55.4046 10.4725 55.1026 10.4725C54.7997 10.4725 54.5554 10.3961 54.3672 10.2453C54.1802 10.0935 54.0859 9.87903 54.0859 9.60386V8.97317C54.0859 8.58245 54.1071 8.21325 54.151 7.8656C53.9484 7.82156 53.7468 7.8 53.5452 7.8C53.3436 7.8 53.142 7.82939 52.9403 7.88716C52.5652 7.98802 52.3782 8.1692 52.3782 8.43065V9.90839C52.3782 10.5019 52.6237 10.9836 53.1127 11.3528C53.6026 11.723 54.2612 11.9071 55.0901 11.9071C55.9181 11.9071 56.5776 11.7034 57.0675 11.298C57.5565 10.8926 57.802 10.3275 57.802 9.60386V0.455366C57.802 0.237966 57.6801 0.130245 57.4346 0.130245C56.9301 0.130245 56.4333 0.159623 55.9435 0.216422C56.0447 0.694312 56.0943 1.28874 56.0943 1.99774V4.58404C55.8061 5.09131 55.3989 5.34397 54.8738 5.34397C54.3478 5.34397 54.0847 5.08345 54.0847 4.56152V1.49928C54.0876 0.499436 53.7059 0 52.9421 0C52.0197 0 51.5588 0.413258 51.5588 1.23879C51.862 1.23879 52.0732 1.30049 52.1969 1.4229C52.3187 1.54629 52.38 1.75977 52.38 2.06433Z"
        fill="#EB8F81" />
    <path
        d="M43.8643 23.9369V16.4405C43.8643 15.0215 43.1513 14.3115 41.7253 14.3115C41.0774 14.3115 40.457 14.5867 39.8668 15.1371C39.5346 14.5867 38.9297 14.3115 38.051 14.3115C37.4607 14.3115 36.8839 14.5505 36.3221 15.0284C36.1204 14.5505 35.7814 14.3115 35.3071 14.3115C34.8316 14.3115 34.4857 14.4202 34.2694 14.6366C34.0534 14.854 33.9531 15.1508 33.9677 15.5278C34.2694 15.5278 34.4791 15.5963 34.5938 15.7344C34.7088 15.8725 34.7673 16.1007 34.7673 16.4189V25.5234C34.7673 25.7701 34.8823 25.8925 35.1132 25.8925C35.5885 25.8925 36.0706 25.8563 36.5607 25.7838L36.475 23.7411V16.3318C36.8636 15.9411 37.2531 15.7452 37.6417 15.7452C38.2039 15.7452 38.4844 16.0214 38.4844 16.5707V25.5234C38.4844 25.7701 38.5994 25.8925 38.8303 25.8925C39.3055 25.8925 39.7888 25.8563 40.2787 25.7838L40.192 23.7411V16.2877C40.4949 15.9264 40.8689 15.7442 41.3161 15.7442C41.8782 15.7442 42.1587 16.0204 42.1587 16.5697V24.5C42.1587 25.4998 42.5404 25.9993 43.3033 25.9993C44.2248 25.9993 44.6854 25.586 44.6854 24.7615C44.3834 24.7615 44.1713 24.6998 44.0486 24.5764C43.9249 24.454 43.8643 24.2405 43.8643 23.9369Z"
        fill="#EB8F81" />
    <path
        d="M50.6819 24.2861V16.6595C50.6819 15.9358 50.448 15.3844 49.9793 15.0084C49.511 14.6324 48.8523 14.4443 48.0019 14.4443C47.1527 14.4443 46.4824 14.647 45.9926 15.0525C45.5036 15.4589 45.2581 16.0229 45.2581 16.7466V25.8726C45.2581 26.1194 45.3731 26.2418 45.6037 26.2418C46.0792 26.2418 46.5622 26.2055 47.0524 26.1331L46.9657 24.0903V20.701H48.9751V24.8502C48.9751 25.85 49.3571 26.3495 50.1206 26.3495C51.0421 26.3495 51.503 25.9362 51.503 25.1117C51.201 25.1117 50.9886 25.05 50.8659 24.9266C50.7431 24.8032 50.6819 24.5897 50.6819 24.2861ZM48.9751 19.2673H46.9657V16.7456C46.9657 16.4705 47.0553 16.257 47.2364 16.1052C47.4165 15.9534 47.6572 15.877 47.9601 15.877C48.263 15.877 48.5076 15.9534 48.6946 16.1052C48.8816 16.257 48.976 16.4705 48.976 16.7456V19.2673H48.9751Z"
        fill="#EB8F81" />
    <path
        d="M58.3005 23.9369V16.4405C58.3005 15.0215 57.5875 14.3115 56.1612 14.3115C55.571 14.3115 54.9942 14.5505 54.4323 15.0284C54.2307 14.5505 53.8917 14.3115 53.4173 14.3115C52.9418 14.3115 52.5962 14.4202 52.38 14.6366C52.1637 14.854 52.0624 15.1508 52.0768 15.5278C52.38 15.5278 52.5884 15.5963 52.7031 15.7344C52.8181 15.8725 52.8767 16.1007 52.8767 16.4189V25.5234C52.8767 25.7701 52.9917 25.8925 53.2226 25.8925C53.6978 25.8925 54.1808 25.8563 54.671 25.7838L54.5844 23.7411V16.3318C54.973 15.9411 55.3625 15.7452 55.7523 15.7452C56.3133 15.7452 56.5946 16.0214 56.5946 16.5707V24.501C56.5946 25.5008 56.9767 26.0002 57.7404 26.0002C58.6619 26.0002 59.1225 25.587 59.1225 24.7624C58.8197 24.7624 58.6073 24.7008 58.4845 24.5774C58.3618 24.454 58.3005 24.2405 58.3005 23.9369Z"
        fill="#EB8F81" />
    <path
        d="M63.4776 14.3103C62.8874 14.3103 62.3109 14.5492 61.7487 15.0271C61.5618 14.5492 61.2266 14.3103 60.7436 14.3103C60.2603 14.3103 59.9117 14.419 59.6955 14.6354C59.4792 14.8528 59.3789 15.1496 59.3935 15.5266C59.6955 15.5266 59.9049 15.5951 60.0199 15.7332C60.1346 15.8713 60.1931 16.0994 60.1931 16.4177V25.7826H62.8516C63.7008 25.7826 64.3749 25.5799 64.8717 25.1735C65.3693 24.7681 65.6169 24.204 65.6169 23.4793V16.4392C65.6169 15.0203 64.9039 14.3103 63.4776 14.3103ZM63.9101 23.4803C63.9101 23.7555 63.8167 23.969 63.6288 24.1217C63.4418 24.2735 63.1963 24.3499 62.8934 24.3499H61.8996V16.3315C62.2885 15.9408 62.678 15.745 63.0666 15.745C63.6288 15.745 63.9093 16.0211 63.9093 16.5705V23.4803H63.9101Z"
        fill="#EB8F81" />
    <path
        d="M68.9134 23.7411V14.5721C68.9134 14.3253 68.7984 14.2029 68.5675 14.2029C68.0914 14.2029 67.6089 14.2391 67.1191 14.3116L67.2057 16.3544V25.5234C67.2057 25.7702 67.3207 25.8926 67.5516 25.8926C68.028 25.8926 68.5101 25.8564 68.9991 25.7839L68.9134 23.7411Z"
        fill="#EB8F81" />
    <path
        d="M23.6247 0.00415039C22.2181 0.00415039 20.9255 0.493793 19.9047 1.3115C18.8838 0.493793 17.5902 0.00415039 16.1836 0.00415039C15.3741 0.00415039 14.6036 0.165732 13.8994 0.459519C13.5731 0.595638 13.2613 0.760157 12.9672 0.950139C12.2054 0.357671 11.2508 0.00415039 10.2144 0.00415039V5.7878C10.2124 5.86126 10.2095 5.93567 10.2095 6.00913C10.2095 6.08353 10.2114 6.15797 10.2144 6.23043V18.0357V18.4558V18.5224C10.2144 18.6713 10.2027 18.8172 10.1813 18.9602C10.1813 18.9612 10.1813 18.9621 10.1803 18.9631C10.1374 19.394 10.0517 19.8543 9.90364 20.3361C9.35522 22.1242 7.26384 24.5303 5.47345 25.6751C6.07447 25.8347 6.70568 25.9199 7.35736 25.9199C8.89349 25.9199 10.3186 25.4479 11.4982 24.638C13.424 23.318 14.6942 21.1019 14.7147 18.5871C14.7157 18.5655 14.7157 18.544 14.7157 18.5234V13.6799H14.7196C14.7196 12.8671 15.3741 12.208 16.1827 12.208C16.9912 12.208 17.6467 12.8671 17.6467 13.6799H17.6428V21.473C17.6428 22.7216 18.1464 23.8537 18.9608 24.6723C19.6709 25.3862 20.6187 25.8622 21.6746 25.9718C21.6814 25.9728 21.6882 25.9738 21.695 25.9748H21.698C21.7155 25.9767 21.7321 25.9777 21.7506 25.9787C21.7525 25.9797 21.7545 25.9797 21.7574 25.9797C21.7769 25.9826 21.7964 25.9846 21.8168 25.9846C21.8529 25.9875 21.8879 25.9895 21.9249 25.9914L22.1315 25.9973H22.1568V17.7429H22.1597C22.1597 16.9301 22.8162 16.272 23.6238 16.272C24.4323 16.272 25.0878 16.9301 25.0878 17.7429H25.0829V21.473C25.0829 22.7216 25.5866 23.8537 26.4028 24.6723C27.2172 25.491 28.3423 25.9973 29.5852 25.9973V6.3695C29.593 6.25002 29.5969 6.12958 29.5969 6.00913C29.5979 2.69229 26.923 0.00415039 23.6247 0.00415039ZM14.1702 8.71685C13.2915 8.71685 12.5804 8.00097 12.5804 7.11867C12.5804 6.23533 13.2925 5.52045 14.1702 5.52045C15.0488 5.52045 15.7599 6.23633 15.7599 7.11867C15.7609 8.00097 15.0488 8.71685 14.1702 8.71685Z"
        fill="#EB8F81" />
    <path
        d="M8.04116 21.3114C7.82197 21.3652 7.59308 21.3946 7.35734 21.3946C5.78029 21.3946 4.50032 20.1088 4.50032 18.5224V7.83154H0V18.5224C0 21.376 1.60726 23.8526 3.96165 25.0856C5.89036 23.9545 7.25115 22.6932 8.04116 21.3114Z"
        fill="#EB8F81" />
    <path
        d="M2.12589 6.64664H2.36941C3.54125 6.64664 4.491 5.69184 4.491 4.51377C4.491 2.02343 2.4824 0.00415039 0.00528029 0.00415039V4.51377C0.00430619 5.69184 0.95405 6.64664 2.12589 6.64664Z"
        fill="#EB8F81" />
</svg>
    