<svg width="97" height="36" viewBox="0 0 97 36" fill="none" xmlns="http://www.w3.org/2000/svg">
    <path
        d="M47.915 15.7134C47.915 16.0527 48.075 16.221 48.3959 16.221C49.0577 16.221 49.7299 16.1712 50.4103 16.0715L50.2915 13.2628V0.657036C50.2915 0.319071 50.1314 0.149414 49.8101 0.149414C49.1483 0.149414 48.4762 0.199234 47.7944 0.298873L47.915 3.10763V15.7134Z"
        fill="#EB8F81" />
    <path
        d="M52.7732 3.19645V15.7133C52.7732 16.0527 52.9333 16.221 53.2546 16.221C53.9159 16.221 54.5868 16.1711 55.269 16.0715L55.1497 13.2627V3.07661C55.6892 2.53937 56.2326 2.27007 56.7734 2.27007C57.5544 2.27007 57.946 2.64843 57.946 3.40381V14.3089C57.946 15.6824 58.4777 16.3704 59.5402 16.3704C60.8226 16.3704 61.4652 15.8022 61.4652 14.6671C61.0437 14.6671 60.7482 14.5823 60.5773 14.414C60.4065 14.2457 60.3225 13.9508 60.3225 13.532V3.22607C60.3225 1.27503 59.3302 0.298828 57.3458 0.298828C56.5227 0.298828 55.7204 0.62737 54.9381 1.28445C54.6575 0.62737 54.1857 0.298828 53.5256 0.298828C52.8638 0.298828 52.3829 0.448288 52.0819 0.747204C51.781 1.04612 51.6413 1.45411 51.6604 1.97115C52.0819 1.97115 52.3721 2.06675 52.5334 2.25526C52.6917 2.44512 52.7732 2.75885 52.7732 3.19645Z"
        fill="#EB8F81" />
    <path
        d="M66.6533 16.0715C67.8355 16.0715 68.7733 15.7928 69.4662 15.2353C70.1575 14.6779 70.5033 13.901 70.5033 12.9046V3.22607C70.5033 1.27503 69.5107 0.298828 67.5262 0.298828C66.7036 0.298828 65.9009 0.62737 65.1186 1.28445C64.8583 0.62737 64.3919 0.298828 63.7198 0.298828C63.0488 0.298828 62.5621 0.448288 62.2611 0.747204C61.9602 1.04612 61.8205 1.45411 61.8396 1.97115C62.2611 1.97115 62.5513 2.06675 62.7113 2.25526C62.8714 2.44512 62.9524 2.75885 62.9524 3.19645V16.0715H66.6533ZM65.3301 3.07661C65.8709 2.53937 66.4134 2.27007 66.9542 2.27007C67.7365 2.27007 68.1269 2.64843 68.1269 3.40381V12.9046C68.1269 13.2843 67.9968 13.5765 67.7365 13.7865C67.4759 13.9952 67.1359 14.1003 66.7144 14.1003H65.3301V3.07661Z"
        fill="#EB8F81" />
    <path
        d="M72.8942 2.83838V6.45365C72.8942 8.36569 73.9164 9.32168 75.9607 9.32168C76.8432 9.32168 77.5453 9.06317 78.0662 8.54476V13.2049C78.0662 13.5833 77.9415 13.8768 77.6904 14.0869C77.4397 14.2956 77.1034 14.3992 76.6832 14.3992C76.2617 14.3992 75.9216 14.2942 75.6597 14.0869C75.3995 13.8781 75.2682 13.5833 75.2682 13.2049V12.3378C75.2682 11.8005 75.2977 11.2929 75.3588 10.8149C75.077 10.7543 74.7964 10.7247 74.5158 10.7247C74.2352 10.7247 73.9546 10.7651 73.674 10.8445C73.1519 10.9832 72.8917 11.2323 72.8917 11.5918V13.6237C72.8917 14.4397 73.2334 15.1021 73.9139 15.6097C74.5956 16.1187 75.5122 16.3718 76.6657 16.3718C77.818 16.3718 78.7358 16.0918 79.4176 15.5343C80.098 14.9769 80.4397 14.2 80.4397 13.2049V0.626111C80.4397 0.327195 80.2701 0.179082 79.9284 0.179082C79.2263 0.179082 78.535 0.219476 77.8533 0.297572C77.9942 0.954653 78.0632 1.77197 78.0632 2.74682V6.30288C77.6621 7.00036 77.0955 7.34775 76.3647 7.34775C75.6327 7.34775 75.2665 6.98956 75.2665 6.27192V2.06146C75.2707 0.686705 74.7394 0 73.6765 0C72.3929 0 71.7515 0.568214 71.7515 1.7033C72.1734 1.7033 72.4673 1.78812 72.6394 1.95644C72.809 2.12609 72.8942 2.41962 72.8942 2.83838Z"
        fill="#EB8F81" />
    <path
        d="M61.0435 32.9123V22.605C61.0435 20.6539 60.0513 19.6777 58.0668 19.6777C57.1651 19.6777 56.3018 20.0561 55.4804 20.8128C55.0181 20.0561 54.1764 19.6777 52.9534 19.6777C52.132 19.6777 51.3293 20.0063 50.5474 20.6634C50.2668 20.0063 49.795 19.6777 49.1349 19.6777C48.4732 19.6777 47.9918 19.8272 47.6908 20.1248C47.3903 20.4237 47.2506 20.8317 47.271 21.35C47.6908 21.35 47.9826 21.4443 48.1423 21.6342C48.3023 21.824 48.3838 22.1378 48.3838 22.5754V35.0936C48.3838 35.4329 48.5438 35.6012 48.8651 35.6012C49.5265 35.6012 50.1974 35.5514 50.8796 35.4517L50.7603 32.643V22.4555C51.3011 21.9183 51.8431 21.649 52.3839 21.649C53.1662 21.649 53.5566 22.0287 53.5566 22.7841V35.0936C53.5566 35.4329 53.7166 35.6012 54.0379 35.6012C54.6993 35.6012 55.3719 35.5514 56.0536 35.4517L55.9331 32.643V22.3949C56.3546 21.8981 56.875 21.6476 57.4973 21.6476C58.2796 21.6476 58.6699 22.0273 58.6699 22.7827V33.6865C58.6699 35.0612 59.2012 35.748 60.2628 35.748C61.5452 35.748 62.1862 35.1798 62.1862 34.046C61.766 34.046 61.4708 33.9612 61.3 33.7915C61.1279 33.6232 61.0435 33.3297 61.0435 32.9123Z"
        fill="#EB8F81" />
    <path
        d="M71.0129 32.912V22.4256C71.0129 21.4306 70.6874 20.6725 70.0352 20.1555C69.3834 19.6384 68.4668 19.3799 67.2833 19.3799C66.1015 19.3799 65.1687 19.6586 64.487 20.216C63.8065 20.7748 63.4648 21.5504 63.4648 22.5455V35.0933C63.4648 35.4326 63.6249 35.6009 63.9458 35.6009C64.6076 35.6009 65.2797 35.5511 65.9619 35.4515L65.8413 32.6427V27.9826H68.6376V33.6876C68.6376 35.0623 69.1693 35.749 70.2318 35.749C71.5142 35.749 72.1556 35.1808 72.1556 34.0471C71.7353 34.0471 71.4398 33.9622 71.2689 33.7926C71.0981 33.623 71.0129 33.3294 71.0129 32.912ZM68.6376 26.0113H65.8413V22.5441C65.8413 22.1657 65.966 21.8722 66.2179 21.6635C66.4686 21.4548 66.8036 21.3498 67.2251 21.3498C67.6466 21.3498 67.9871 21.4548 68.2473 21.6635C68.5075 21.8722 68.6389 22.1657 68.6389 22.5441V26.0113H68.6376Z"
        fill="#EB8F81" />
    <path
        d="M81.1338 32.9123V22.605C81.1338 20.6539 80.1416 19.6777 78.1567 19.6777C77.3353 19.6777 76.5326 20.0063 75.7507 20.6634C75.4701 20.0063 74.9983 19.6777 74.3382 19.6777C73.6764 19.6777 73.1954 19.8272 72.8945 20.1248C72.5935 20.4237 72.4526 20.8317 72.4726 21.35C72.8945 21.35 73.1846 21.4443 73.3443 21.6342C73.5043 21.824 73.5858 22.1378 73.5858 22.5754V35.0936C73.5858 35.4329 73.7458 35.6012 74.0671 35.6012C74.7285 35.6012 75.4007 35.5514 76.0828 35.4517L75.9622 32.643V22.4555C76.5031 21.9183 77.0451 21.649 77.5876 21.649C78.3682 21.649 78.7598 22.0287 78.7598 22.7841V33.6879C78.7598 35.0626 79.2915 35.7493 80.3544 35.7493C81.6368 35.7493 82.2778 35.1811 82.2778 34.0473C81.8563 34.0473 81.5607 33.9625 81.3899 33.7929C81.219 33.6232 81.1338 33.3297 81.1338 32.9123Z"
        fill="#EB8F81" />
    <path
        d="M88.3384 19.6758C87.5171 19.6758 86.7148 20.0043 85.9325 20.6614C85.6722 20.0043 85.2058 19.6758 84.5337 19.6758C83.8611 19.6758 83.376 19.8252 83.075 20.1228C82.7741 20.4217 82.6344 20.8297 82.6548 21.3481C83.075 21.3481 83.3664 21.4424 83.5265 21.6322C83.6861 21.8221 83.7676 22.1358 83.7676 22.5734V35.4498H87.4672C88.649 35.4498 89.5872 35.1711 90.2785 34.6123C90.971 34.0548 91.3156 33.2792 91.3156 32.2828V22.603C91.3156 20.652 90.3234 19.6758 88.3384 19.6758ZM88.9404 32.2842C88.9404 32.6626 88.8103 32.9561 88.5488 33.1661C88.2886 33.3748 87.9469 33.4799 87.5254 33.4799H86.1424V22.4549C86.6836 21.9177 87.2257 21.6484 87.7665 21.6484C88.5488 21.6484 88.9391 22.0281 88.9391 22.7835V32.2842H88.9404Z"
        fill="#EB8F81" />
    <path
        d="M95.9028 32.643V20.036C95.9028 19.6966 95.7427 19.5283 95.4214 19.5283C94.7588 19.5283 94.0875 19.5782 93.4058 19.6778L93.5263 22.4866V35.0936C93.5263 35.4329 93.6863 35.6012 94.0077 35.6012C94.6707 35.6012 95.3416 35.5514 96.0221 35.4518L95.9028 32.643Z"
        fill="#EB8F81" />
    <path
        d="M32.8774 0.00585938C30.9199 0.00585938 29.121 0.6791 27.7003 1.80341C26.2797 0.6791 24.4794 0.00585938 22.522 0.00585938C21.3954 0.00585938 20.3232 0.228028 19.3431 0.631974C18.889 0.819132 18.4552 1.04534 18.0458 1.30656C16.9857 0.491937 15.6572 0.00585938 14.2149 0.00585938V7.95816C14.2122 8.05917 14.2081 8.16147 14.2081 8.26248C14.2081 8.36478 14.2108 8.46712 14.2149 8.56676V24.7986V25.3762V25.4678C14.2149 25.6725 14.1986 25.8731 14.1688 26.0696C14.1688 26.071 14.1688 26.0724 14.1674 26.0737C14.1078 26.6662 13.9885 27.299 13.7824 27.9615C13.0192 30.4201 10.1088 33.7284 7.61719 35.3025C8.45359 35.5219 9.33202 35.6391 10.2389 35.6391C12.3767 35.6391 14.3599 34.9901 16.0015 33.8765C18.6816 32.0615 20.4493 29.0144 20.4777 25.5567C20.4791 25.527 20.4791 25.4974 20.4791 25.4691V18.8094H20.4845C20.4845 17.6919 21.3954 16.7857 22.5206 16.7857C23.6458 16.7857 24.5581 17.6919 24.5581 18.8094H24.5526V29.5247C24.5526 31.2415 25.2535 32.798 26.3868 33.9237C27.375 34.9053 28.694 35.5596 30.1634 35.7105C30.1729 35.7118 30.1824 35.7132 30.1919 35.7145H30.196C30.2204 35.7172 30.2434 35.7185 30.2692 35.7199C30.2719 35.7212 30.2746 35.7212 30.2787 35.7212C30.3058 35.7253 30.3329 35.728 30.3614 35.728C30.4115 35.732 30.4603 35.7347 30.5118 35.7374L30.7992 35.7455H30.8345V24.396H30.8385C30.8385 23.2784 31.7522 22.3736 32.876 22.3736C34.0011 22.3736 34.9134 23.2784 34.9134 24.396H34.9067V29.5247C34.9067 31.2415 35.6075 32.798 36.7435 33.9237C37.8768 35.0493 39.4425 35.7455 41.1722 35.7455V8.75798C41.1831 8.5937 41.1885 8.42809 41.1885 8.26248C41.1898 3.70195 37.4674 0.00585938 32.8774 0.00585938ZM19.7199 11.9855C18.4972 11.9855 17.5076 11.0012 17.5076 9.78805C17.5076 8.5735 18.4986 7.59057 19.7199 7.59057C20.9427 7.59057 21.9323 8.57487 21.9323 9.78805C21.9336 11.0012 20.9427 11.9855 19.7199 11.9855Z"
        fill="#EB8F81" />
    <path
        d="M11.1904 29.3019C10.8854 29.3759 10.5669 29.4163 10.2388 29.4163C8.04411 29.4163 6.26285 27.6484 6.26285 25.4671V10.7676H0V25.4671C0 29.3907 2.23673 32.796 5.51321 34.4912C8.19729 32.936 10.091 31.2018 11.1904 29.3019Z"
        fill="#EB8F81" />
    <path
        d="M2.95797 9.13904H3.29686C4.92765 9.13904 6.24936 7.82622 6.24936 6.20641C6.24936 2.7823 3.45411 0.00585938 0.00683698 0.00585938V6.20641C0.00548138 7.82622 1.32719 9.13904 2.95797 9.13904Z"
        fill="#EB8F81" />
</svg>
    