<svg width="36" height="36" viewBox="0 0 36 36" fill="none" xmlns="http://www.w3.org/2000/svg">
    <rect x="0.5" y="0.5" width="35" height="35" rx="17.5" fill="white" />
    <g clip-path="url(#clip0_66_2611)">
        <path
            d="M21.75 13.625V22.4416C21.75 24.1833 20.475 25.7333 18.7416 25.9C16.75 26.0916 15.0833 24.5333 15.0833 22.5833V12.2833C15.0833 11.1916 15.8666 10.2 16.95 10.0916C18.2 9.96663 19.25 10.9416 19.25 12.1666V20.9166C19.25 21.375 18.875 21.75 18.4166 21.75C17.9583 21.75 17.5833 21.375 17.5833 20.9166V13.625C17.5833 13.2833 17.3 13 16.9583 13C16.6166 13 16.3333 13.2833 16.3333 13.625V20.8C16.3333 21.8916 17.1166 22.8833 18.2 22.9916C19.45 23.1166 20.5 22.1416 20.5 20.9166V12.3083C20.5 10.5666 19.225 9.01663 17.4916 8.84996C15.5083 8.65829 13.8333 10.2166 13.8333 12.1666V22.3916C13.8333 24.7833 15.5833 26.925 17.9666 27.15C20.7083 27.4 23 25.2666 23 22.5833V13.625C23 13.2833 22.7166 13 22.375 13C22.0333 13 21.75 13.2833 21.75 13.625Z"
            fill="#713A74" />
    </g>
    <rect x="0.5" y="0.5" width="35" height="35" rx="17.5" stroke="#713A74" />
    <defs>
        <clipPath id="clip0_66_2611">
            <rect width="20" height="20" fill="white" transform="translate(8 8)" />
        </clipPath>
    </defs>
</svg>
    