<svg width="60" height="60" viewBox="0 0 60 60" fill="none" xmlns="http://www.w3.org/2000/svg">
    <g filter="url(#filter0_d_49_1477)">
        <rect x="8" y="7" width="44" height="44" rx="22" fill="white" fill-opacity="0.4"
            shape-rendering="crispEdges" />
        <path
            d="M22.4414 29.5391C22.4414 29.9375 22.5938 30.2773 22.9102 30.582L32.0508 39.5234C32.2969 39.7812 32.625 39.9102 33 39.9102C33.7617 39.9102 34.3594 39.3242 34.3594 38.5508C34.3594 38.1758 34.207 37.8359 33.9492 37.5781L25.7109 29.5391L33.9492 21.5C34.207 21.2305 34.3594 20.8906 34.3594 20.5156C34.3594 19.7539 33.7617 19.168 33 19.168C32.625 19.168 32.2969 19.2969 32.0508 19.5547L22.9102 28.4961C22.5938 28.8008 22.4531 29.1406 22.4414 29.5391Z"
            fill="#003166" />
    </g>
    <defs>
        <filter id="filter0_d_49_1477" x="0" y="0" width="60" height="60"
            filterUnits="userSpaceOnUse" color-interpolation-filters="sRGB">
            <feFlood flood-opacity="0" result="BackgroundImageFix" />
            <feColorMatrix in="SourceAlpha" type="matrix"
                values="0 0 0 0 0 0 0 0 0 0 0 0 0 0 0 0 0 0 127 0" result="hardAlpha" />
            <feOffset dy="1" />
            <feGaussianBlur stdDeviation="4" />
            <feComposite in2="hardAlpha" operator="out" />
            <feColorMatrix type="matrix" values="0 0 0 0 0 0 0 0 0 0 0 0 0 0 0 0 0 0 0.12 0" />
            <feBlend mode="normal" in2="BackgroundImageFix" result="effect1_dropShadow_49_1477" />
            <feBlend mode="normal" in="SourceGraphic" in2="effect1_dropShadow_49_1477"
                result="shape" />
        </filter>
    </defs>
</svg>
    