<svg width="11" height="18" viewBox="0 0 11 18" fill="none" xmlns="http://www.w3.org/2000/svg">
    <path
        d="M0.75 8.94922C0.75 9.19336 0.837891 9.4082 1.02344 9.59375L8.76758 17.1621C8.93359 17.3379 9.14844 17.4258 9.40234 17.4258C9.91016 17.4258 10.3008 17.0449 10.3008 16.5371C10.3008 16.2832 10.1934 16.0684 10.0371 15.9023L2.92773 8.94922L10.0371 1.99609C10.1934 1.83008 10.3008 1.60547 10.3008 1.36133C10.3008 0.853516 9.91016 0.472656 9.40234 0.472656C9.14844 0.472656 8.93359 0.560547 8.76758 0.726562L1.02344 8.30469C0.837891 8.48047 0.75 8.70508 0.75 8.94922Z"
        fill="#1D2451" />
</svg>
    