<svg width="44" height="44" viewBox="0 0 44 44" fill="none"
    xmlns="http://www.w3.org/2000/svg">
    <path d="M12.3828 29.7031H31.0977C32.293 29.7031 33.0312 29.0469 33.0312 28.0742C33.0312 26.8438 31.8945 25.7773 30.8398 24.7578C30.0195 23.9609 29.832 22.2852 29.6797 20.75C29.5156 16.4375 28.2617 13.4023 25.2148 12.3008C24.7344 10.7539 23.4688 9.57031 21.7344 9.57031C20 9.57031 18.7344 10.7539 18.2539 12.3008C15.207 13.4023 13.9531 16.4375 13.7891 20.75C13.6484 22.2852 13.4492 23.9609 12.6289 24.7578C11.5742 25.7773 10.4492 26.8438 10.4492 28.0742C10.4492 29.0469 11.1758 29.7031 12.3828 29.7031ZM21.7344 34.5195C23.8086 34.5195 25.3086 33.043 25.4727 31.332H18.0078C18.1602 33.043 19.6719 34.5195 21.7344 34.5195Z" fill="#1D2451"/>
    <rect x="25" y="5" width="14" height="14" rx="7" fill="#D85758"/>
    <rect x="25" y="5" width="14" height="14" rx="7" stroke="white" stroke-width="2"/>
</svg>
    