<svg width="24" height="26" viewBox="0 0 24 26" fill="none"
    xmlns="http://www.w3.org/2000/svg">
    <path d="M2.38281 20.7031H21.0977C22.293 20.7031 23.0312 20.0469 23.0312 19.0742C23.0312 17.8438 21.8945 16.7773 20.8398 15.7578C20.0195 14.9609 19.832 13.2852 19.6797 11.75C19.5156 7.4375 18.2617 4.40234 15.2148 3.30078C14.7344 1.75391 13.4688 0.570312 11.7344 0.570312C10 0.570312 8.73438 1.75391 8.25391 3.30078C5.20703 4.40234 3.95312 7.4375 3.78906 11.75C3.64844 13.2852 3.44922 14.9609 2.62891 15.7578C1.57422 16.7773 0.449219 17.8438 0.449219 19.0742C0.449219 20.0469 1.17578 20.7031 2.38281 20.7031ZM11.7344 25.5195C13.8086 25.5195 15.3086 24.043 15.4727 22.332H8.00781C8.16016 24.043 9.67188 25.5195 11.7344 25.5195Z" fill="#1D2451"/>
</svg>
    