<svg width="20" height="20" viewBox="0 0 20 20" fill="none" xmlns="http://www.w3.org/2000/svg">
    <path
        d="M10.1552 4.22902C10.0557 4.18915 9.94465 4.18915 9.84516 4.22902L4.87183 6.21819L6.87516 7.01902L12.0035 4.96819L10.1552 4.22902ZM13.1252 5.41735L7.99683 7.46819L10.0002 8.26902L15.1285 6.21819L13.1252 5.41735ZM15.8335 6.83402L10.4168 9.00069V15.6024L15.8335 13.4357V6.83485V6.83402ZM9.5835 15.6032V8.99985L4.16683 6.83402V13.4365L9.5835 15.6032ZM9.536 3.45485C9.83397 3.33569 10.1664 3.33569 10.4643 3.45485L16.4052 5.83152C16.4824 5.86248 16.5486 5.91585 16.5952 5.98476C16.6419 6.05368 16.6668 6.13498 16.6668 6.21819V13.4365C16.6667 13.603 16.6167 13.7657 16.5233 13.9035C16.4299 14.0414 16.2973 14.1481 16.1427 14.2099L10.1552 16.6049C10.0557 16.6447 9.94465 16.6447 9.84516 16.6049L3.8585 14.2099C3.70371 14.1482 3.57095 14.0416 3.47736 13.9037C3.38378 13.7659 3.33367 13.6031 3.3335 13.4365V6.21819C3.33352 6.13498 3.35845 6.05368 3.40509 5.98476C3.45172 5.91585 3.51792 5.86248 3.59516 5.83152L9.536 3.45485Z"
        fill="#1D2451" />
</svg>
    