<svg width="20" height="20" viewBox="0 0 20 20" fill="none" xmlns="http://www.w3.org/2000/svg">
    <path
        d="M6.11921 12.6789C6.1949 12.7603 6.25289 12.8586 6.28907 12.9667C6.32524 13.0749 6.3387 13.1903 6.32848 13.3047C6.27724 13.8342 6.18008 14.3573 6.03827 14.8674C7.05546 14.6151 7.67671 14.3228 7.9589 14.1697C8.11895 14.0828 8.30328 14.0622 8.47661 14.1119C8.97349 14.2538 9.4856 14.3253 9.99984 14.3244C12.9136 14.3244 15.104 12.1311 15.104 9.63625C15.104 7.14216 12.9136 4.94811 9.99984 4.94811C7.08609 4.94811 4.89567 7.14216 4.89567 9.63625C4.89567 10.7833 5.34557 11.8475 6.11921 12.6789ZM5.75973 15.7301C5.58697 15.7668 5.41365 15.8004 5.23984 15.8308C5.094 15.8559 4.98317 15.6933 5.04077 15.548C5.10552 15.3844 5.16486 15.2184 5.21869 15.0503L5.22088 15.0425C5.40171 14.4799 5.549 13.8329 5.60296 13.2305C4.70827 12.2694 4.1665 11.0114 4.1665 9.63625C4.1665 6.61552 6.77838 4.16675 9.99984 4.16675C13.2213 4.16675 15.8332 6.61552 15.8332 9.63625C15.8332 12.657 13.2213 15.1058 9.99984 15.1058C9.42208 15.1066 8.84672 15.0262 8.28848 14.8667C7.90932 15.0722 7.09338 15.4464 5.75973 15.7301Z"
        fill="#1D2451" />
</svg>
    