<svg width="17" height="16" viewBox="0 0 17 16" fill="none" xmlns="http://www.w3.org/2000/svg">
    <path
        d="M1.24414 15.4492C1.58594 15.7812 2.15234 15.7812 2.48438 15.4492L8.73438 9.19922L14.9844 15.4492C15.3164 15.7812 15.8926 15.791 16.2246 15.4492C16.5566 15.1074 16.5566 14.5508 16.2246 14.2188L9.97461 7.95898L16.2246 1.70898C16.5566 1.37695 16.5664 0.810547 16.2246 0.478516C15.8828 0.136719 15.3164 0.136719 14.9844 0.478516L8.73438 6.72852L2.48438 0.478516C2.15234 0.136719 1.57617 0.126953 1.24414 0.478516C0.912109 0.820312 0.912109 1.37695 1.24414 1.70898L7.49414 7.95898L1.24414 14.2188C0.912109 14.5508 0.902344 15.1172 1.24414 15.4492Z"
        fill="#1D2451" />
</svg>
    