<svg width="12" height="13" viewBox="0 0 12 13" fill="none"
    xmlns="http://www.w3.org/2000/svg">
    <g clip-path="url(#clip0_234_3284)">
        <rect y="0.5" width="12" height="12" rx="6" fill="#F03D3E"/>
        <path d="M5.5 3V8.585L3.06 6.145C2.865 5.95 2.545 5.95 2.35 6.145C2.155 6.34 2.155 6.655 2.35 6.85L5.645 10.145C5.84 10.34 6.155 10.34 6.35 10.145L9.645 6.85C9.84 6.655 9.84 6.34 9.645 6.145C9.45 5.95 9.135 5.95 8.94 6.145L6.5 8.585V3C6.5 2.725 6.275 2.5 6 2.5C5.725 2.5 5.5 2.725 5.5 3Z" fill="#FBFBFB"/>
    </g>
    <defs>
        <clipPath id="clip0_234_3284">
            <rect y="0.5" width="12" height="12" rx="6" fill="white"/>
        </clipPath>
    </defs>
</svg>
    