<svg width="34" height="28" viewBox="0 0 34 28" fill="none" xmlns="http://www.w3.org/2000/svg">
    <path
        d="M30.4281 0.612305H4.06479C2.25231 0.612305 0.785856 2.11841 0.785856 3.95921L0.769379 24.0406C0.769379 25.8814 2.25231 27.3875 4.06479 27.3875H30.4281C32.2406 27.3875 33.7235 25.8814 33.7235 24.0406V3.95921C33.7235 2.11841 32.2406 0.612305 30.4281 0.612305ZM29.769 7.72447L18.1197 15.1211C17.5925 15.4558 16.9004 15.4558 16.3732 15.1211L4.72387 7.72447C4.55865 7.63028 4.41397 7.50301 4.29858 7.35038C4.18319 7.19775 4.09949 7.02292 4.05256 6.83649C4.00562 6.65006 3.99642 6.45589 4.0255 6.26574C4.05459 6.07558 4.12137 5.8934 4.22179 5.73022C4.32221 5.56704 4.45418 5.42625 4.60973 5.31637C4.76528 5.20649 4.94116 5.12981 5.12673 5.09096C5.3123 5.05211 5.5037 5.05192 5.68935 5.09037C5.875 5.12883 6.05104 5.20515 6.20681 5.3147L17.2464 12.3265L28.2861 5.3147C28.4418 5.20515 28.6179 5.12883 28.8035 5.09037C28.9892 5.05192 29.1806 5.05211 29.3661 5.09096C29.5517 5.12981 29.7276 5.20649 29.8831 5.31637C30.0387 5.42625 30.1707 5.56704 30.2711 5.73022C30.3715 5.8934 30.4383 6.07558 30.4674 6.26574C30.4965 6.45589 30.4873 6.65006 30.4403 6.83649C30.3934 7.02292 30.3097 7.19775 30.1943 7.35038C30.0789 7.50301 29.9342 7.63028 29.769 7.72447Z"
        fill="#713A74" />
</svg>
    