<svg width="31" height="30" viewBox="0 0 31 30" fill="none" xmlns="http://www.w3.org/2000/svg">
    <path
        d="M28.8375 0H2.1625C1.72259 0.00327085 1.30162 0.179477 0.99055 0.49055C0.679477 0.801623 0.503271 1.22259 0.5 1.6625V28.3375C0.503271 28.7774 0.679477 29.1984 0.99055 29.5094C1.30162 29.8205 1.72259 29.9967 2.1625 30H16.525V18.4H12.625V13.8625H16.525V10.525C16.525 6.65 18.8875 4.5375 22.3625 4.5375C23.525 4.5375 24.6875 4.5375 25.85 4.7125V8.75H23.4625C21.575 8.75 21.2125 9.65 21.2125 10.9625V13.85H25.7125L25.125 18.3875H21.2125V30H28.8375C29.2774 29.9967 29.6984 29.8205 30.0094 29.5094C30.3205 29.1984 30.4967 28.7774 30.5 28.3375V1.6625C30.4967 1.22259 30.3205 0.801623 30.0094 0.49055C29.6984 0.179477 29.2774 0.00327085 28.8375 0Z"
        fill="#713A74" />
</svg>
    