<svg width="60" height="60" viewBox="0 0 60 60" fill="none" xmlns="http://www.w3.org/2000/svg">
    <g filter="url(#filter0_d_18_436)">
        <rect x="8" y="7" width="44" height="44" rx="22" fill="white" fill-opacity="0.4"
            shape-rendering="crispEdges" />
        <path
            d="M36.3837 22.4728C34.1837 20.9728 31.467 21.6728 30.0003 23.3894C28.5337 21.6728 25.817 20.9644 23.617 22.4728C22.4503 23.2728 21.717 24.6228 21.667 26.0478C21.5503 29.2811 24.417 31.8728 28.792 35.8478L28.8753 35.9228C29.5087 36.4978 30.4837 36.4978 31.117 35.9144L31.2087 35.8311C35.5837 31.8644 38.442 29.2728 38.3337 26.0394C38.2837 24.6228 37.5503 23.2728 36.3837 22.4728ZM30.0837 34.6061L30.0003 34.6894L29.917 34.6061C25.9503 31.0144 23.3337 28.6394 23.3337 26.2311C23.3337 24.5644 24.5837 23.3144 26.2503 23.3144C27.5337 23.3144 28.7837 24.1394 29.2253 25.2811H30.7837C31.217 24.1394 32.467 23.3144 33.7503 23.3144C35.417 23.3144 36.667 24.5644 36.667 26.2311C36.667 28.6394 34.0503 31.0144 30.0837 34.6061Z"
            fill="#1D2451" />
    </g>
    <defs>
        <filter id="filter0_d_18_436" x="0" y="0" width="60" height="60"
            filterUnits="userSpaceOnUse" color-interpolation-filters="sRGB">
            <feFlood flood-opacity="0" result="BackgroundImageFix" />
            <feColorMatrix in="SourceAlpha" type="matrix"
                values="0 0 0 0 0 0 0 0 0 0 0 0 0 0 0 0 0 0 127 0" result="hardAlpha" />
            <feOffset dy="1" />
            <feGaussianBlur stdDeviation="4" />
            <feComposite in2="hardAlpha" operator="out" />
            <feColorMatrix type="matrix" values="0 0 0 0 0 0 0 0 0 0 0 0 0 0 0 0 0 0 0.12 0" />
            <feBlend mode="normal" in2="BackgroundImageFix" result="effect1_dropShadow_18_436" />
            <feBlend mode="normal" in="SourceGraphic" in2="effect1_dropShadow_18_436" result="shape" />
        </filter>
    </defs>
</svg>
    