<svg width="12" height="12" viewBox="0 0 12 12" fill="none"
    xmlns="http://www.w3.org/2000/svg">
    <g clip-path="url(#clip0_232_2724)">
        <path d="M5.5 3.5H6.5V4.5H5.5V3.5ZM6 8.5C6.275 8.5 6.5 8.275 6.5 8V6C6.5 5.725 6.275 5.5 6 5.5C5.725 5.5 5.5 5.725 5.5 6V8C5.5 8.275 5.725 8.5 6 8.5ZM6 1C3.24 1 1 3.24 1 6C1 8.76 3.24 11 6 11C8.76 11 11 8.76 11 6C11 3.24 8.76 1 6 1ZM6 10C3.795 10 2 8.205 2 6C2 3.795 3.795 2 6 2C8.205 2 10 3.795 10 6C10 8.205 8.205 10 6 10Z" fill="#EEEEEE"/>
    </g>
    <defs>
        <clipPath id="clip0_232_2724">
            <rect width="12" height="12" fill="white"/>
        </clipPath>
    </defs>
</svg>
    