<svg width="35" height="34" viewBox="0 0 35 34" fill="none" xmlns="http://www.w3.org/2000/svg">
    <path
        d="M17.5 0.333496C22.0283 0.333496 22.5933 0.350163 24.37 0.433496C26.145 0.516829 27.3533 0.795163 28.4166 1.2085C29.5166 1.63183 30.4433 2.20516 31.37 3.13016C32.2175 3.96332 32.8732 4.97114 33.2916 6.0835C33.7033 7.14516 33.9833 8.35516 34.0666 10.1302C34.145 11.9068 34.1666 12.4718 34.1666 17.0002C34.1666 21.5285 34.15 22.0935 34.0666 23.8702C33.9833 25.6452 33.7033 26.8535 33.2916 27.9168C32.8744 29.0298 32.2185 30.0379 31.37 30.8702C30.5366 31.7174 29.5288 32.3731 28.4166 32.7918C27.355 33.2035 26.145 33.4835 24.37 33.5668C22.5933 33.6452 22.0283 33.6668 17.5 33.6668C12.9716 33.6668 12.4066 33.6502 10.63 33.5668C8.85498 33.4835 7.64665 33.2035 6.58331 32.7918C5.47052 32.3743 4.46252 31.7184 3.62998 30.8702C2.78232 30.0371 2.12653 29.0293 1.70831 27.9168C1.29498 26.8552 1.01665 25.6452 0.933313 23.8702C0.85498 22.0935 0.833313 21.5285 0.833313 17.0002C0.833313 12.4718 0.84998 11.9068 0.933313 10.1302C1.01665 8.3535 1.29498 7.14683 1.70831 6.0835C2.12537 4.97046 2.78132 3.96236 3.62998 3.13016C4.46276 2.28221 5.47069 1.62638 6.58331 1.2085C7.64665 0.795163 8.85331 0.516829 10.63 0.433496C12.4066 0.355163 12.9716 0.333496 17.5 0.333496ZM17.5 8.66683C15.2898 8.66683 13.1702 9.5448 11.6074 11.1076C10.0446 12.6704 9.16665 14.79 9.16665 17.0002C9.16665 19.2103 10.0446 21.3299 11.6074 22.8927C13.1702 24.4555 15.2898 25.3335 17.5 25.3335C19.7101 25.3335 21.8297 24.4555 23.3925 22.8927C24.9553 21.3299 25.8333 19.2103 25.8333 17.0002C25.8333 14.79 24.9553 12.6704 23.3925 11.1076C21.8297 9.5448 19.7101 8.66683 17.5 8.66683ZM28.3333 8.25016C28.3333 7.69763 28.1138 7.16772 27.7231 6.77702C27.3324 6.38632 26.8025 6.16683 26.25 6.16683C25.6974 6.16683 25.1675 6.38632 24.7768 6.77702C24.3861 7.16772 24.1666 7.69763 24.1666 8.25016C24.1666 8.8027 24.3861 9.3326 24.7768 9.7233C25.1675 10.114 25.6974 10.3335 26.25 10.3335C26.8025 10.3335 27.3324 10.114 27.7231 9.7233C28.1138 9.3326 28.3333 8.8027 28.3333 8.25016ZM17.5 12.0002C18.8261 12.0002 20.0978 12.5269 21.0355 13.4646C21.9732 14.4023 22.5 15.6741 22.5 17.0002C22.5 18.3262 21.9732 19.598 21.0355 20.5357C20.0978 21.4734 18.8261 22.0002 17.5 22.0002C16.1739 22.0002 14.9021 21.4734 13.9644 20.5357C13.0268 19.598 12.5 18.3262 12.5 17.0002C12.5 15.6741 13.0268 14.4023 13.9644 13.4646C14.9021 12.5269 16.1739 12.0002 17.5 12.0002Z"
        fill="#713A74" />
</svg>
    