<svg width="42" height="42" viewBox="0 0 42 42" fill="none"
    xmlns="http://www.w3.org/2000/svg">
    <g filter="url(#filter0_d_257_2852)">
        <rect x="8" y="7" width="26" height="26" rx="13" fill="white" shape-rendering="crispEdges"/>
        <g clip-path="url(#clip0_257_2852)">
            <path d="M20.9997 17.6673C21.6413 17.6673 22.1663 17.1423 22.1663 16.5007C22.1663 15.859 21.6413 15.334 20.9997 15.334C20.358 15.334 19.833 15.859 19.833 16.5007C19.833 17.1423 20.358 17.6673 20.9997 17.6673ZM20.9997 18.834C20.358 18.834 19.833 19.359 19.833 20.0007C19.833 20.6423 20.358 21.1673 20.9997 21.1673C21.6413 21.1673 22.1663 20.6423 22.1663 20.0007C22.1663 19.359 21.6413 18.834 20.9997 18.834ZM20.9997 22.334C20.358 22.334 19.833 22.859 19.833 23.5007C19.833 24.1423 20.358 24.6673 20.9997 24.6673C21.6413 24.6673 22.1663 24.1423 22.1663 23.5007C22.1663 22.859 21.6413 22.334 20.9997 22.334Z" fill="#1D2451"/>
        </g>
    </g>
    <defs>
        <filter id="filter0_d_257_2852" x="0" y="0" width="42" height="42" filterUnits="userSpaceOnUse" color-interpolation-filters="sRGB">
            <feFlood flood-opacity="0" result="BackgroundImageFix"/>
            <feColorMatrix in="SourceAlpha" type="matrix" values="0 0 0 0 0 0 0 0 0 0 0 0 0 0 0 0 0 0 127 0" result="hardAlpha"/>
            <feOffset dy="1"/>
            <feGaussianBlur stdDeviation="4"/>
            <feComposite in2="hardAlpha" operator="out"/>
            <feColorMatrix type="matrix" values="0 0 0 0 0 0 0 0 0 0 0 0 0 0 0 0 0 0 0.12 0"/>
            <feBlend mode="normal" in2="BackgroundImageFix" result="effect1_dropShadow_257_2852"/>
            <feBlend mode="normal" in="SourceGraphic" in2="effect1_dropShadow_257_2852" result="shape"/>
        </filter>
        <clipPath id="clip0_257_2852">
            <rect width="14" height="14" fill="white" transform="translate(14 13)"/>
        </clipPath>
    </defs>
</svg>
    