<svg width="25" height="25" viewBox="0 0 25 25" fill="none" xmlns="http://www.w3.org/2000/svg">
    <path
        d="M12.7031 24.6445C19.3242 24.6445 24.8086 19.1719 24.8086 12.5391C24.8086 5.91797 19.3242 0.433594 12.6914 0.433594C6.07031 0.433594 0.597656 5.91797 0.597656 12.5391C0.597656 19.1719 6.08203 24.6445 12.7031 24.6445ZM12.7031 22.2656C7.3125 22.2656 2.98828 17.9297 2.98828 12.5391C2.98828 7.14844 7.30078 2.82422 12.6914 2.82422C18.082 2.82422 22.4297 7.14844 22.4297 12.5391C22.4297 17.9297 18.0938 22.2656 12.7031 22.2656ZM7.24219 14.2969C8.21484 14.2969 9.01172 13.5117 9.01172 12.5273C9.01172 11.5547 8.20312 10.7695 7.24219 10.7695C6.26953 10.7695 5.47266 11.5547 5.47266 12.5273C5.47266 13.5117 6.26953 14.2969 7.24219 14.2969ZM12.6914 14.2969C13.6641 14.2969 14.4492 13.5117 14.4492 12.5273C14.4492 11.5547 13.6641 10.7695 12.6914 10.7695C11.7188 10.7695 10.9219 11.5547 10.9219 12.5273C10.9219 13.5117 11.7188 14.2969 12.6914 14.2969ZM18.1289 14.2969C19.1133 14.2969 19.8984 13.5117 19.8984 12.5273C19.8984 11.5547 19.1133 10.7695 18.1289 10.7695C17.1562 10.7695 16.3711 11.5547 16.3711 12.5273C16.3711 13.5117 17.1562 14.2969 18.1289 14.2969Z"
        fill="#003166" />
</svg>
    