<svg width="32" height="32" viewBox="0 0 32 32" fill="none"
    xmlns="http://www.w3.org/2000/svg">
    <g clip-path="url(#clip0_244_2608)">
        <path d="M6.66667 14.6667H12C13.4667 14.6667 14.6667 13.4667 14.6667 12V6.66667C14.6667 5.2 13.4667 4 12 4H6.66667C5.2 4 4 5.2 4 6.66667V12C4 13.4667 5.2 14.6667 6.66667 14.6667ZM6.66667 6.66667H12V12H6.66667V6.66667Z" fill="#1D2451"/>
        <path d="M6.66667 28.0007H12C13.4667 28.0007 14.6667 26.8007 14.6667 25.334V20.0007C14.6667 18.534 13.4667 17.334 12 17.334H6.66667C5.2 17.334 4 18.534 4 20.0007V25.334C4 26.8007 5.2 28.0007 6.66667 28.0007ZM6.66667 20.0007H12V25.334H6.66667V20.0007Z" fill="#1D2451"/>
        <path d="M17.3333 6.66667V12C17.3333 13.4667 18.5333 14.6667 20 14.6667H25.3333C26.8 14.6667 28 13.4667 28 12V6.66667C28 5.2 26.8 4 25.3333 4H20C18.5333 4 17.3333 5.2 17.3333 6.66667ZM25.3333 12H20V6.66667H25.3333V12Z" fill="#1D2451"/>
        <path d="M28 27.334V26.0007C28 25.6273 27.7067 25.334 27.3333 25.334H26C25.6267 25.334 25.3333 25.6273 25.3333 26.0007V27.334C25.3333 27.7073 25.6267 28.0007 26 28.0007H27.3333C27.7067 28.0007 28 27.7073 28 27.334Z" fill="#1D2451"/>
        <path d="M17.3333 18.0007V19.334C17.3333 19.7073 17.6267 20.0007 18 20.0007H19.3333C19.7067 20.0007 20 19.7073 20 19.334V18.0007C20 17.6273 19.7067 17.334 19.3333 17.334H18C17.6267 17.334 17.3333 17.6273 17.3333 18.0007Z" fill="#1D2451"/>
        <path d="M22 20H20.6667C20.2933 20 20 20.2933 20 20.6667V22C20 22.3733 20.2933 22.6667 20.6667 22.6667H22C22.3733 22.6667 22.6667 22.3733 22.6667 22V20.6667C22.6667 20.2933 22.3733 20 22 20Z" fill="#1D2451"/>
        <path d="M17.3333 23.3327V24.666C17.3333 25.0394 17.6267 25.3327 18 25.3327H19.3333C19.7067 25.3327 20 25.0394 20 24.666V23.3327C20 22.9593 19.7067 22.666 19.3333 22.666H18C17.6267 22.666 17.3333 22.9593 17.3333 23.3327Z" fill="#1D2451"/>
        <path d="M20.6667 28.0007H22C22.3733 28.0007 22.6667 27.7073 22.6667 27.334V26.0007C22.6667 25.6273 22.3733 25.334 22 25.334H20.6667C20.2933 25.334 20 25.6273 20 26.0007V27.334C20 27.7073 20.2933 28.0007 20.6667 28.0007Z" fill="#1D2451"/>
        <path d="M23.3333 25.3327H24.6667C25.04 25.3327 25.3333 25.0394 25.3333 24.666V23.3327C25.3333 22.9593 25.04 22.666 24.6667 22.666H23.3333C22.96 22.666 22.6667 22.9593 22.6667 23.3327V24.666C22.6667 25.0394 22.96 25.3327 23.3333 25.3327Z" fill="#1D2451"/>
        <path d="M24.6667 17.334H23.3333C22.96 17.334 22.6667 17.6273 22.6667 18.0007V19.334C22.6667 19.7073 22.96 20.0007 23.3333 20.0007H24.6667C25.04 20.0007 25.3333 19.7073 25.3333 19.334V18.0007C25.3333 17.6273 25.04 17.334 24.6667 17.334Z" fill="#1D2451"/>
        <path d="M26 22.6667H27.3333C27.7067 22.6667 28 22.3733 28 22V20.6667C28 20.2933 27.7067 20 27.3333 20H26C25.6267 20 25.3333 20.2933 25.3333 20.6667V22C25.3333 22.3733 25.6267 22.6667 26 22.6667Z" fill="#1D2451"/>
    </g>
    <defs>
        <clipPath id="clip0_244_2608">
            <rect width="32" height="32" fill="white"/>
        </clipPath>
    </defs>
</svg>
    