<svg width="25" height="26" viewBox="0 0 25 26" fill="none" xmlns="http://www.w3.org/2000/svg">
    <path
        d="M11.4766 25.4844H13.6211C14.3125 25.4844 14.8398 25.0742 14.9805 24.3945L15.5781 21.8984C15.9766 21.7578 16.3633 21.6055 16.7148 21.4414L18.8945 22.7773C19.4688 23.1406 20.1367 23.082 20.6172 22.6016L22.1172 21.1016C22.5977 20.6211 22.668 19.918 22.2812 19.3438L20.957 17.1875C21.1211 16.8242 21.2852 16.4492 21.4023 16.0859L23.9102 15.4883C24.5898 15.3359 25 14.8203 25 14.1289V12.0195C25 11.3281 24.5898 10.8125 23.9102 10.6602L21.4258 10.0625C21.2852 9.64062 21.1211 9.26562 20.9805 8.94922L22.3047 6.74609C22.6797 6.16016 22.6328 5.50391 22.1406 5.01172L20.6172 3.51172C20.125 3.06641 19.5156 2.98438 18.9297 3.3125L16.7148 4.67188C16.375 4.50781 16 4.35547 15.5781 4.21484L14.9805 1.68359C14.8398 1.00391 14.3125 0.59375 13.6211 0.59375H11.4766C10.7734 0.59375 10.2578 1.00391 10.1055 1.69531L9.51953 4.19141C9.10938 4.33203 8.71094 4.48438 8.35938 4.66016L6.15625 3.3125C5.57031 2.98438 4.96094 3.05469 4.46875 3.51172L2.94531 5.01172C2.45312 5.50391 2.40625 6.16016 2.78125 6.74609L4.10547 8.94922C3.96484 9.26562 3.80078 9.64062 3.67188 10.0625L1.1875 10.6602C0.507812 10.8125 0.0976562 11.3281 0.0976562 12.0195V14.1289C0.0976562 14.8203 0.507812 15.3359 1.1875 15.4883L3.69531 16.0859C3.8125 16.4492 3.96484 16.8242 4.12891 17.1875L2.80469 19.3438C2.41797 19.918 2.48828 20.6211 2.96875 21.1016L4.46875 22.6016C4.94922 23.082 5.62891 23.1406 6.20312 22.7773L8.37109 21.4414C8.72266 21.6055 9.10938 21.7578 9.51953 21.8984L10.1055 24.3945C10.2578 25.0742 10.7734 25.4844 11.4766 25.4844ZM12.5547 17.1406C10.293 17.1406 8.44141 15.2891 8.44141 13.0273C8.44141 10.7891 10.293 8.9375 12.5547 8.9375C14.8047 8.9375 16.6445 10.7891 16.6445 13.0273C16.6445 15.2891 14.8047 17.1406 12.5547 17.1406Z"
        fill="#003166" />
</svg>
    