<svg width="36" height="37" viewBox="0 0 36 37" fill="none" xmlns="http://www.w3.org/2000/svg">
    <rect x="0.5" y="1" width="35" height="35" rx="17.5" fill="white" />
    <g clip-path="url(#clip0_49_1517)">
        <path
            d="M23 21.9001C22.3667 21.9001 21.8 22.1501 21.3667 22.5417L15.425 19.0834C15.4667 18.8917 15.5 18.7001 15.5 18.5001C15.5 18.3001 15.4667 18.1084 15.425 17.9167L21.3 14.4917C21.75 14.9084 22.3417 15.1667 23 15.1667C24.3833 15.1667 25.5 14.0501 25.5 12.6667C25.5 11.2834 24.3833 10.1667 23 10.1667C21.6167 10.1667 20.5 11.2834 20.5 12.6667C20.5 12.8667 20.5333 13.0584 20.575 13.2501L14.7 16.6751C14.25 16.2584 13.6583 16.0001 13 16.0001C11.6167 16.0001 10.5 17.1167 10.5 18.5001C10.5 19.8834 11.6167 21.0001 13 21.0001C13.6583 21.0001 14.25 20.7417 14.7 20.3251L20.6333 23.7917C20.5917 23.9667 20.5667 24.1501 20.5667 24.3334C20.5667 25.6751 21.6583 26.7667 23 26.7667C24.3417 26.7667 25.4333 25.6751 25.4333 24.3334C25.4333 22.9917 24.3417 21.9001 23 21.9001Z"
            fill="#713A74" />
    </g>
    <rect x="0.5" y="1" width="35" height="35" rx="17.5" stroke="#713A74" />
    <defs>
        <clipPath id="clip0_49_1517">
            <rect width="20" height="20" fill="white" transform="translate(8 8.5)" />
        </clipPath>
    </defs>
</svg>
    