<svg width="36" height="36" viewBox="0 0 36 36" fill="none" xmlns="http://www.w3.org/2000/svg">
    <rect x="0.5" y="0.5" width="35" height="35" rx="17.5" fill="white" />
    <g clip-path="url(#clip0_49_1344)">
        <path
            d="M11.3333 23H14.6667C15.125 23 15.5 22.625 15.5 22.1667C15.5 21.7083 15.125 21.3333 14.6667 21.3333H11.3333C10.875 21.3333 10.5 21.7083 10.5 22.1667C10.5 22.625 10.875 23 11.3333 23ZM10.5 13.8333C10.5 14.2917 10.875 14.6667 11.3333 14.6667H24.6667C25.125 14.6667 25.5 14.2917 25.5 13.8333C25.5 13.375 25.125 13 24.6667 13H11.3333C10.875 13 10.5 13.375 10.5 13.8333ZM11.3333 18.8333H19.6667C20.125 18.8333 20.5 18.4583 20.5 18C20.5 17.5417 20.125 17.1667 19.6667 17.1667H11.3333C10.875 17.1667 10.5 17.5417 10.5 18C10.5 18.4583 10.875 18.8333 11.3333 18.8333Z"
            fill="#713A74" />
    </g>
    <rect x="0.5" y="0.5" width="35" height="35" rx="17.5" stroke="#713A74" />
    <defs>
        <clipPath id="clip0_49_1344">
            <rect width="20" height="20" fill="white" transform="translate(8 8)" />
        </clipPath>
    </defs>
</svg>
    