<svg width="32" height="32" viewBox="0 0 32 32" fill="none" xmlns="http://www.w3.org/2000/svg">
    <path
        d="M11.7664 25.6384C10.4936 25.6449 9.63951 24.3564 9.9158 22.8464C10.1645 21.4884 11.1564 20.4601 12.2608 20.4184C13.5213 20.3703 14.3884 21.5421 14.2139 23.0576C14.0517 24.4638 12.9435 25.6329 11.7664 25.6384Z"
        fill="#F4988A" />
    <path
        d="M24.1432 25.6417C22.8949 25.6473 22.0584 24.4088 22.2956 22.9053C22.539 21.3611 23.7505 20.267 25.031 20.4338C26.0917 20.5727 26.8012 21.8233 26.5846 23.1749C26.3649 24.5524 25.2912 25.6362 24.1432 25.6417Z"
        fill="#F4988A" />
    <path
        d="M2.61424 13.0732C2.07773 13.0685 1.62848 12.5201 1.63384 11.8754C1.63919 11.2223 2.08539 10.6971 2.62954 10.7017C3.17293 10.7063 3.61683 11.2464 3.60994 11.8939C3.60306 12.5433 3.15227 13.0778 2.61424 13.0732Z"
        fill="#F4988A" />
    <path
        d="M30.2763 13.7041C29.7988 12.6814 29.3488 11.6383 28.8543 10.6268C28.6829 10.2766 28.4388 9.96165 28.1854 9.6893C27.4721 8.92135 26.6042 8.66104 25.6705 8.66012C25.1019 8.65919 24.5332 8.66012 23.9699 8.66012C23.9462 8.53506 23.9309 8.46836 23.9202 8.40074C23.7082 7.02139 22.9873 6.18674 21.8308 6.07188C20.9851 5.9885 20.1341 5.9533 19.2853 5.95052C14.293 5.93848 9.29992 5.94219 4.30761 5.94033C4.26934 5.94033 4.23107 5.93941 4.19281 5.94219C3.73743 5.9709 3.34557 6.3924 3.28358 6.91949C3.21164 7.53367 3.47415 8.08485 3.93948 8.25252C4.09178 8.3081 4.26015 8.31088 4.42088 8.31273C5.02243 8.32014 5.62399 8.30162 6.22478 8.32107C6.77277 8.3396 7.18452 8.8704 7.1784 9.5068C7.17151 10.1534 6.75746 10.6499 6.20488 10.6638C5.88038 10.6722 5.55511 10.662 5.23061 10.6675C4.6191 10.6786 4.18898 11.1668 4.18286 11.8514C4.17673 12.548 4.61145 13.0501 5.23749 13.0622C5.59032 13.0686 5.94467 13.0501 6.29672 13.0742C6.89216 13.114 7.30238 13.8394 7.13783 14.5351C7.00084 15.115 6.65108 15.4133 6.07401 15.416C4.9283 15.4216 3.78258 15.4438 2.63763 15.4068C2.06133 15.3882 1.61514 15.5652 1.3335 16.2007V16.963C1.5807 17.5883 1.98939 17.8162 2.55804 17.8014C3.77034 17.7699 4.98264 17.7875 6.1957 17.794C6.71843 17.7968 7.13171 18.2646 7.17686 18.8769C7.21896 19.4503 6.89139 19.9783 6.40158 20.1154C6.30055 20.1432 6.19417 20.1516 6.09008 20.1525C5.72731 20.1571 5.36454 20.1506 5.00177 20.1553C4.43542 20.1627 4.02213 20.6629 4.02137 21.3336C4.0206 22.008 4.42394 22.5101 4.99718 22.5147C6.16202 22.524 7.32687 22.5036 8.49095 22.5286C8.78178 22.5351 8.90118 22.4174 9.00143 22.1034C9.57314 20.3118 10.6722 19.2984 12.235 19.0807C13.5919 18.8917 14.8923 19.8347 15.2558 21.5365C15.34 21.932 15.3576 22.3489 15.4073 22.7722H21.1803C21.2017 22.6889 21.2208 22.6138 21.24 22.5388C21.6563 20.8649 22.5571 19.7597 23.9301 19.2354C25.2328 18.7379 26.5828 19.2734 27.2808 20.5388C27.613 21.1409 27.7477 21.8171 27.7599 22.5592C28.3117 22.5684 28.7602 22.3341 29.1337 21.8866C29.6373 21.2836 29.9373 20.5351 30.0804 19.7115C30.2771 18.5731 30.4202 17.4197 30.6016 16.2766C30.7463 15.3679 30.6552 14.5156 30.2763 13.7041ZM28.2589 15.1687C26.6555 15.1826 25.0514 15.1724 23.448 15.1705C23.4304 15.1705 23.4135 15.1548 23.3577 15.1289C23.5245 13.53 23.6906 11.9394 23.862 10.2988C24.7238 10.3535 25.5932 10.1858 26.4428 10.4841C26.9265 10.6546 27.329 10.9973 27.5923 11.5124C28.0171 12.3461 28.4196 13.1974 28.8061 14.058C29.0334 14.5656 28.7388 15.165 28.2589 15.1687Z"
        fill="#F4988A" />
</svg>
    