<svg width="33" height="32" viewBox="0 0 33 32" fill="none" xmlns="http://www.w3.org/2000/svg">
    <path
        d="M16.5004 4C22.76 4 27.8332 9.07412 27.8332 15.3328C27.8332 21.5914 22.76 26.6655 16.5004 26.6655C14.5788 26.6655 12.7261 26.1856 11.0804 25.2878L6.42511 26.6281C6.25585 26.6769 6.07658 26.6794 5.90599 26.6355C5.7354 26.5915 5.57971 26.5026 5.45514 26.378C5.33057 26.2535 5.24167 26.0978 5.19769 25.9272C5.15372 25.7566 5.15629 25.5773 5.20512 25.4081L6.54731 20.7557C5.63947 19.0925 5.165 17.2276 5.16767 15.3328C5.16767 9.07412 10.2428 4 16.5004 4ZM17.2385 16.8109H12.804L12.7044 16.8178C12.5275 16.8422 12.3654 16.9297 12.2481 17.0643C12.1307 17.1989 12.0661 17.3715 12.0661 17.55C12.0661 17.7286 12.1307 17.9011 12.2481 18.0357C12.3654 18.1703 12.5275 18.2579 12.7044 18.2822L12.804 18.2891H17.2375L17.3371 18.2822C17.514 18.2579 17.6761 18.1703 17.7934 18.0357C17.9108 17.9011 17.9754 17.7286 17.9754 17.55C17.9754 17.3715 17.9108 17.1989 17.7934 17.0643C17.6761 16.9297 17.514 16.8422 17.3371 16.8178L17.2375 16.8109H17.2385ZM20.2008 12.3764H12.804L12.7044 12.3833C12.5275 12.4076 12.3654 12.4952 12.2481 12.6298C12.1307 12.7644 12.0661 12.9369 12.0661 13.1155C12.0661 13.294 12.1307 13.4666 12.2481 13.6012C12.3654 13.7358 12.5275 13.8233 12.7044 13.8477L12.804 13.8546H20.1998L20.3003 13.8477C20.4772 13.8233 20.6393 13.7358 20.7567 13.6012C20.874 13.4666 20.9387 13.294 20.9387 13.1155C20.9387 12.9369 20.874 12.7644 20.7567 12.6298C20.6393 12.4952 20.4772 12.4076 20.3003 12.3833L20.2008 12.3764Z"
        fill="#F4988A" />
</svg>
    