<svg width="19" height="18" viewBox="0 0 19 18" fill="none" xmlns="http://www.w3.org/2000/svg">
    <path
        d="M17.4748 8.47112L9.52585 0.52213C9.19276 0.189047 8.73365 0 8.25653 0H1.80191C0.811667 0 0.00146484 0.810203 0.00146484 1.80045V8.25506C0.00146484 8.73218 0.190512 9.1913 0.532598 9.52438L8.48158 17.4734C9.18376 18.1755 10.327 18.1755 11.0292 17.4734L17.4838 11.0188C18.186 10.3166 18.186 9.1823 17.4748 8.47112ZM9.7509 16.2041L1.80191 8.25506V1.80045H8.25653L16.2055 9.74944L9.7509 16.2041Z"
        fill="#713A74" />
    <path
        d="M4.05249 5.40234C4.79826 5.40234 5.40282 4.79777 5.40282 4.052C5.40282 3.30623 4.79826 2.70166 4.05249 2.70166C3.30672 2.70166 2.70215 3.30623 2.70215 4.052C2.70215 4.79777 3.30672 5.40234 4.05249 5.40234Z"
        fill="#713A74" />
</svg>
    