<svg width="12" height="13" viewBox="0 0 12 13" fill="none"
    xmlns="http://www.w3.org/2000/svg">
    <g clip-path="url(#clip0_234_3275)">
        <rect y="0.5" width="12" height="12" rx="6" fill="#50CD8D"/>
        <path d="M6.5 10.0002V4.41523L8.94 6.85523C9.135 7.05023 9.455 7.05023 9.65 6.85523C9.845 6.66023 9.845 6.34523 9.65 6.15023L6.355 2.85523C6.16 2.66023 5.845 2.66023 5.65 2.85523L2.35 6.14523C2.155 6.34023 2.155 6.65523 2.35 6.85023C2.545 7.04523 2.86 7.04523 3.055 6.85023L5.5 4.41523V10.0002C5.5 10.2752 5.725 10.5002 6 10.5002C6.275 10.5002 6.5 10.2752 6.5 10.0002Z" fill="#FBFBFB"/>
    </g>
    <defs>
        <clipPath id="clip0_234_3275">
            <rect y="0.5" width="12" height="12" rx="6" fill="white"/>
        </clipPath>
    </defs>
</svg>
    