<svg width="40" height="40" viewBox="0 0 40 40" fill="none" xmlns="http://www.w3.org/2000/svg">
    <g clip-path="url(#clip0_78_1496)">
        <path
            d="M20.1522 39.3437C31.0396 39.3437 39.8656 30.5363 39.8656 19.6718C39.8656 8.80738 31.0396 0 20.1522 0C9.26482 0 0.438843 8.80738 0.438843 19.6718C0.438843 30.5363 9.26482 39.3437 20.1522 39.3437Z"
            fill="#A793A6" />
        <path
            d="M19.9881 30.8667C17.1848 30.8667 14.3815 30.8667 11.5782 30.8667C11.4753 30.8667 11.3705 30.8685 11.2675 30.8649C10.2869 30.8235 9.82097 30.1907 10.1391 29.2952C11.058 26.6935 11.9805 24.0918 12.9181 21.4955C13.4121 20.1236 14.8456 19.1652 16.3577 19.1635C18.7661 19.1617 21.1745 19.1617 23.583 19.1635C25.1456 19.1652 26.5603 20.1397 27.0693 21.562C27.977 24.1044 28.8808 26.6486 29.7828 29.1946C29.8333 29.3347 29.8764 29.4804 29.9045 29.6261C30.0092 30.1996 29.6462 30.7121 29.0511 30.8217C28.8583 30.8576 28.66 30.8649 28.4635 30.8649C25.6377 30.8666 22.812 30.8667 19.9881 30.8667Z"
            fill="#713A74" />
        <path
            d="M24.62 11.5067C24.4161 13.6248 23.6975 15.4928 22.1405 16.9888C20.7912 18.2869 19.2511 18.3103 17.9187 17.0068C16.2495 15.3724 15.3568 13.3784 15.484 11.0662C15.6001 8.94992 17.4452 7.2472 19.6572 7.07279C21.8523 6.90018 23.9127 8.31881 24.4404 10.3883C24.5358 10.7623 24.5658 11.1524 24.62 11.5067Z"
            fill="#713A74" />
    </g>
    <defs>
        <clipPath id="clip0_78_1496">
            <rect width="40" height="40" fill="white" />
        </clipPath>
    </defs>
</svg>
    