<svg width="20" height="20" viewBox="0 0 20 20" fill="none" xmlns="http://www.w3.org/2000/svg">
    <path
        d="M16.6287 9.83349L15.2002 6.64457C15.1637 6.56223 15.1027 6.49197 15.0248 6.44256C14.9469 6.39314 14.8555 6.36675 14.7621 6.36668H13.3335V5.45556C13.3335 5.33474 13.2833 5.21886 13.194 5.13343C13.1047 5.048 12.9836 5 12.8573 5H3.80969C3.68339 5 3.56227 5.048 3.47297 5.13343C3.38367 5.21886 3.3335 5.33474 3.3335 5.45556V13.2001C3.3335 13.3209 3.38367 13.4368 3.47297 13.5222C3.56227 13.6076 3.68339 13.6556 3.80969 13.6556H4.82873C4.93839 14.0417 5.17778 14.3825 5.50997 14.6254C5.84216 14.8684 6.24868 15 6.66683 15C7.08497 15 7.4915 14.8684 7.82369 14.6254C8.15588 14.3825 8.39527 14.0417 8.50492 13.6556H11.4954C11.6051 14.0417 11.8444 14.3825 12.1766 14.6254C12.5088 14.8684 12.9154 15 13.3335 15C13.7516 15 14.1582 14.8684 14.4904 14.6254C14.8225 14.3825 15.0619 14.0417 15.1716 13.6556H16.1906C16.3169 13.6556 16.4381 13.6076 16.5274 13.5222C16.6167 13.4368 16.6668 13.3209 16.6668 13.2001V10.0112C16.6667 9.95009 16.6538 9.88967 16.6287 9.83349ZM13.3335 7.2778H14.4478L15.4668 9.5556H13.3335V7.2778ZM6.66683 14.1112C6.47847 14.1112 6.29433 14.0578 6.13772 13.9577C5.9811 13.8575 5.85903 13.7152 5.78694 13.5488C5.71486 13.3823 5.696 13.1991 5.73275 13.0223C5.7695 12.8456 5.8602 12.6832 5.99339 12.5558C6.12659 12.4284 6.29629 12.3416 6.48103 12.3065C6.66577 12.2713 6.85726 12.2894 7.03129 12.3583C7.20531 12.4273 7.35406 12.5441 7.45871 12.6939C7.56335 12.8437 7.61921 13.0199 7.61921 13.2001C7.61921 13.4417 7.51887 13.6735 7.34026 13.8443C7.16166 14.0152 6.91942 14.1112 6.66683 14.1112ZM11.4954 12.7445H8.50492C8.39527 12.3585 8.15588 12.0177 7.82369 11.7748C7.4915 11.5318 7.08497 11.4002 6.66683 11.4002C6.24868 11.4002 5.84216 11.5318 5.50997 11.7748C5.17778 12.0177 4.93839 12.3585 4.82873 12.7445H4.28588V5.91112H12.3811V11.633C12.1643 11.7534 11.9744 11.9135 11.8224 12.1043C11.6704 12.295 11.5593 12.5126 11.4954 12.7445ZM13.3335 14.1112C13.1451 14.1112 12.961 14.0578 12.8044 13.9577C12.6478 13.8575 12.5257 13.7152 12.4536 13.5488C12.3815 13.3823 12.3627 13.1991 12.3994 13.0223C12.4362 12.8456 12.5269 12.6832 12.6601 12.5558C12.7933 12.4284 12.963 12.3416 13.1477 12.3065C13.3324 12.2713 13.5239 12.2894 13.698 12.3583C13.872 12.4273 14.0207 12.5441 14.1254 12.6939C14.23 12.8437 14.2859 13.0199 14.2859 13.2001C14.2859 13.4417 14.1855 13.6735 14.0069 13.8443C13.8283 14.0152 13.5861 14.1112 13.3335 14.1112ZM15.7144 12.7445H15.1716C15.0663 12.3543 14.8288 12.0086 14.4962 11.7613C14.1636 11.514 13.7547 11.3792 13.3335 11.3778V10.4667H15.7144V12.7445Z"
        fill="#1D2451" />
</svg>
    