<svg width="42" height="42" viewBox="0 0 42 42" fill="none" xmlns="http://www.w3.org/2000/svg">
    <g filter="url(#filter0_d_277_4193)">
        <rect x="8" y="7" width="26" height="26" rx="13" fill="white" fill-opacity="0.4"
            shape-rendering="crispEdges" />
        <path
            d="M25.4685 15.4309C23.9285 14.3809 22.0268 14.8709 21.0002 16.0726C19.9735 14.8709 18.0718 14.3751 16.5318 15.4309C15.7152 15.9909 15.2018 16.9359 15.1668 17.9334C15.0852 20.1967 17.0918 22.0109 20.1543 24.7934L20.2127 24.8459C20.656 25.2484 21.3385 25.2484 21.7818 24.8401L21.846 24.7817C24.9085 22.0051 26.9093 20.1909 26.8335 17.9276C26.7985 16.9359 26.2852 15.9909 25.4685 15.4309ZM21.0585 23.9242L21.0002 23.9826L20.9418 23.9242C18.1652 21.4101 16.3335 19.7476 16.3335 18.0617C16.3335 16.8951 17.2085 16.0201 18.3752 16.0201C19.2735 16.0201 20.1485 16.5976 20.4577 17.3967H21.5485C21.8518 16.5976 22.7268 16.0201 23.6252 16.0201C24.7918 16.0201 25.6668 16.8951 25.6668 18.0617C25.6668 19.7476 23.8352 21.4101 21.0585 23.9242Z"
            fill="#1D2451" />
    </g>
    <defs>
        <filter id="filter0_d_277_4193" x="0" y="0" width="42" height="42"
            filterUnits="userSpaceOnUse" color-interpolation-filters="sRGB">
            <feFlood flood-opacity="0" result="BackgroundImageFix" />
            <feColorMatrix in="SourceAlpha" type="matrix"
                values="0 0 0 0 0 0 0 0 0 0 0 0 0 0 0 0 0 0 127 0" result="hardAlpha" />
            <feOffset dy="1" />
            <feGaussianBlur stdDeviation="4" />
            <feComposite in2="hardAlpha" operator="out" />
            <feColorMatrix type="matrix" values="0 0 0 0 0 0 0 0 0 0 0 0 0 0 0 0 0 0 0.12 0" />
            <feBlend mode="normal" in2="BackgroundImageFix" result="effect1_dropShadow_277_4193" />
            <feBlend mode="normal" in="SourceGraphic" in2="effect1_dropShadow_277_4193"
                result="shape" />
        </filter>
    </defs>
</svg>
    