<svg width="33" height="32" viewBox="0 0 33 32" fill="none" xmlns="http://www.w3.org/2000/svg">
    <g clip-path="url(#clip0_591_2064)">
        <rect width="32" height="32" transform="translate(0.58313)" fill="#1D2451" />
        <path
            d="M9.11642 12.266H9.38309C10.4098 12.266 11.2498 13.106 11.2498 14.1327V23.466C11.2498 24.4927 10.4098 25.3327 9.38309 25.3327H9.11642C8.08976 25.3327 7.24976 24.4927 7.24976 23.466V14.1327C7.24976 13.106 8.08976 12.266 9.11642 12.266ZM16.5831 6.66602C17.6098 6.66602 18.4498 7.50602 18.4498 8.53268V23.466C18.4498 24.4927 17.6098 25.3327 16.5831 25.3327C15.5564 25.3327 14.7164 24.4927 14.7164 23.466V8.53268C14.7164 7.50602 15.5564 6.66602 16.5831 6.66602ZM24.0498 17.3327C25.0764 17.3327 25.9164 18.1727 25.9164 19.1993V23.466C25.9164 24.4927 25.0764 25.3327 24.0498 25.3327C23.0231 25.3327 22.1831 24.4927 22.1831 23.466V19.1993C22.1831 18.1727 23.0231 17.3327 24.0498 17.3327Z"
            fill="white" />
    </g>
    <defs>
        <clipPath id="clip0_591_2064">
            <rect width="32" height="32" fill="white" transform="translate(0.58313)" />
        </clipPath>
    </defs>
</svg>
    