<svg width="33" height="32" viewBox="0 0 33 32" fill="none" xmlns="http://www.w3.org/2000/svg">
    <rect width="32" height="32" transform="translate(0.300018)" fill="#1D2451" />
    <path
        d="M25.6334 8.66667H22.9667C22.9667 4.98667 19.98 2 16.3 2C12.62 2 9.63335 4.98667 9.63335 8.66667H6.96669C5.50002 8.66667 4.30002 9.86667 4.30002 11.3333V27.3333C4.30002 28.8 5.50002 30 6.96669 30H25.6334C27.1 30 28.3 28.8 28.3 27.3333V11.3333C28.3 9.86667 27.1 8.66667 25.6334 8.66667ZM16.3 4.66667C18.5134 4.66667 20.3 6.45333 20.3 8.66667H12.3C12.3 6.45333 14.0867 4.66667 16.3 4.66667ZM25.6334 27.3333H6.96669V11.3333H25.6334V27.3333ZM16.3 16.6667C14.0867 16.6667 12.3 14.88 12.3 12.6667H9.63335C9.63335 16.3467 12.62 19.3333 16.3 19.3333C19.98 19.3333 22.9667 16.3467 22.9667 12.6667H20.3C20.3 14.88 18.5134 16.6667 16.3 16.6667Z"
        fill="white" />
</svg>
    