<svg width="33" height="32" viewBox="0 0 33 32" fill="none" xmlns="http://www.w3.org/2000/svg">
    <rect width="32" height="32" transform="translate(0.416504)" fill="#1D2451" />
    <path
        d="M16.7654 4.98307C23.3921 4.98307 28.6321 11.0631 27.1921 17.9431C26.2854 22.2497 22.6588 25.5964 18.2988 26.2097C16.1788 26.5031 14.1121 26.1964 12.1921 25.2764C11.8321 25.1031 11.4454 25.0231 11.0454 25.0231C10.7921 25.0231 10.5388 25.0631 10.2988 25.1297L7.21878 26.0364C6.71211 26.1831 6.23211 25.7164 6.37878 25.1964L7.31211 22.0097C7.48544 21.4097 7.40544 20.7831 7.12544 20.2097C6.44544 18.7697 6.09878 17.2231 6.09878 15.6497C6.09878 9.76974 10.8854 4.98307 16.7654 4.98307ZM16.7654 2.31641C9.40544 2.31641 3.43211 8.28974 3.43211 15.6497C3.43211 17.7031 3.91211 19.6231 4.72544 21.3697L2.77878 27.9831C2.48544 28.9831 3.43211 29.9297 4.44544 29.6231L11.0588 27.6764C13.2721 28.7297 15.8054 29.2097 18.4988 28.8631C24.5788 28.0764 29.4454 23.0631 30.0454 16.9697C30.8054 9.02307 24.5654 2.31641 16.7654 2.31641Z"
        fill="white" />
</svg>
    