<svg width="23" height="24" viewBox="0 0 23 24" fill="none" xmlns="http://www.w3.org/2000/svg">
    <path
        d="M16.8021 15.2954H15.7488L15.3754 14.9354C16.9754 13.0688 17.8021 10.5221 17.3488 7.81543C16.7221 4.10876 13.6287 1.14876 9.89542 0.69543C4.25542 0.00209719 -0.49125 4.74876 0.202083 10.3888C0.655417 14.1221 3.61542 17.2154 7.32208 17.8421C10.0288 18.2954 12.5754 17.4688 14.4421 15.8688L14.8021 16.2421V17.2954L20.4688 22.9621C21.0154 23.5088 21.9088 23.5088 22.4554 22.9621C23.0021 22.4154 23.0021 21.5221 22.4554 20.9754L16.8021 15.2954ZM8.80208 15.2954C5.48208 15.2954 2.80208 12.6154 2.80208 9.29543C2.80208 5.97543 5.48208 3.29543 8.80208 3.29543C12.1221 3.29543 14.8021 5.97543 14.8021 9.29543C14.8021 12.6154 12.1221 15.2954 8.80208 15.2954Z"
        fill="white" />
</svg>
    