<svg width="33" height="32" viewBox="0 0 33 32" fill="none" xmlns="http://www.w3.org/2000/svg">
    <rect width="32" height="32" transform="translate(0.249985)" fill="#1D2451" />
    <path
        d="M29.4471 11.8533L28.0471 6.02667C27.7538 4.82667 26.7138 4 25.5005 4H6.98046C5.78046 4 4.72713 4.84 4.44713 6.02667L3.04712 11.8533C2.72712 13.2133 3.02046 14.6 3.87379 15.6933C3.98046 15.84 4.12712 15.9467 4.24712 16.08V25.3333C4.24712 26.8 5.44712 28 6.91379 28H25.5805C27.0471 28 28.2471 26.8 28.2471 25.3333V16.08C28.3671 15.96 28.5138 15.84 28.6205 15.7067C29.4738 14.6133 29.7805 13.2133 29.4471 11.8533ZM25.4605 6.65333L26.8605 12.48C26.9938 13.04 26.8738 13.6 26.5271 14.04C26.3405 14.28 25.9405 14.6667 25.2738 14.6667C24.4605 14.6667 23.7538 14.0133 23.6605 13.1467L22.8871 6.66667L25.4605 6.65333ZM17.5805 6.66667H20.1938L20.9138 12.6933C20.9805 13.2133 20.8205 13.7333 20.4738 14.12C20.1805 14.4667 19.7538 14.6667 19.2071 14.6667C18.3138 14.6667 17.5805 13.88 17.5805 12.92V6.66667ZM11.5671 12.6933L12.3005 6.66667H14.9138V12.92C14.9138 13.88 14.1805 14.6667 13.1938 14.6667C12.7405 14.6667 12.3271 14.4667 12.0071 14.12C11.6738 13.7333 11.5138 13.2133 11.5671 12.6933ZM5.63379 12.48L6.98046 6.66667H9.60712L8.83379 13.1467C8.72712 14.0133 8.03379 14.6667 7.22046 14.6667C6.56712 14.6667 6.15379 14.28 5.98046 14.04C5.62046 13.6133 5.50046 13.04 5.63379 12.48ZM6.91379 25.3333V17.2933C7.02046 17.3067 7.11379 17.3333 7.22046 17.3333C8.38046 17.3333 9.43379 16.8533 10.2071 16.0667C11.0071 16.8667 12.0738 17.3333 13.2871 17.3333C14.4471 17.3333 15.4871 16.8533 16.2605 16.0933C17.0471 16.8533 18.1138 17.3333 19.3138 17.3333C20.4338 17.3333 21.5005 16.8667 22.3005 16.0667C23.0738 16.8533 24.1271 17.3333 25.2871 17.3333C25.3938 17.3333 25.4871 17.3067 25.5938 17.2933V25.3333H6.91379Z"
        fill="white" />
</svg>
    